<?xml version="1.0" standalone="no"?>
<!DOCTYPE svg PUBLIC "-//W3C//DTD SVG 20010904//EN"
 "http://www.w3.org/TR/2001/REC-SVG-20010904/DTD/svg10.dtd">
<svg version="1.0" xmlns="http://www.w3.org/2000/svg"
 width="1792.000000pt" height="576.000000pt" viewBox="0 0 1792.000000 576.000000"
 preserveAspectRatio="xMidYMid meet">

<g transform="translate(0.000000,576.000000) scale(0.100000,-0.100000)"
fill="#000000" stroke="none">
<path d="M2319 4545 c-6 -6 -2 -110 6 -131 2 -6 38 -13 82 -16 68 -5 288 -61
303 -78 3 -3 18 -12 34 -20 33 -17 116 -106 116 -125 0 -7 7 -26 15 -41 20
-40 19 -146 -2 -192 -19 -43 -60 -105 -96 -146 -14 -17 -24 -33 -22 -36 2 -4
-1 -7 -8 -7 -7 0 -35 -16 -63 -35 -28 -19 -72 -44 -98 -54 -25 -10 -46 -24
-46 -30 0 -16 24 -64 33 -64 4 0 7 -9 7 -20 0 -11 6 -23 14 -26 15 -6 158 50
179 70 7 6 30 23 52 37 39 26 115 96 145 135 20 25 64 116 85 176 39 106 139
166 345 207 25 5 101 20 170 34 135 28 223 44 310 57 30 5 102 16 160 25 58 9
150 21 205 26 55 5 145 14 200 19 212 20 351 23 509 11 211 -16 310 -34 431
-76 210 -74 321 -145 430 -274 82 -97 128 -195 157 -336 15 -73 21 -306 9
-318 -6 -6 -11 -40 -12 -76 0 -65 -7 -113 -29 -201 -6 -25 -14 -58 -16 -75 -3
-16 -9 -39 -13 -50 -5 -11 -16 -47 -26 -80 -10 -33 -22 -64 -27 -69 -4 -6 -8
-17 -8 -26 0 -39 -127 -320 -215 -475 -45 -79 -118 -200 -124 -205 -4 -3 -19
-25 -35 -49 -35 -55 -66 -89 -186 -212 -266 -270 -574 -427 -974 -494 -116
-20 -483 -19 -507 2 -8 6 -25 13 -39 15 -28 3 -33 26 -10 39 8 5 42 21 75 36
33 15 84 42 113 60 29 18 55 33 58 33 23 0 201 165 270 250 16 19 31 37 34 40
13 11 110 170 110 179 0 5 3 11 8 13 4 2 24 39 46 83 42 88 46 97 71 170 9 28
21 61 27 75 17 41 25 62 44 125 10 33 22 64 26 70 4 5 8 17 8 27 0 10 4 26 9
36 5 9 17 44 27 77 10 33 22 64 26 69 4 6 8 19 8 31 0 12 4 25 8 31 4 5 16 36
26 69 10 33 22 69 26 80 20 47 73 202 78 225 2 14 8 30 12 35 4 6 15 37 25 70
10 33 21 64 26 70 5 5 9 17 9 26 0 9 7 30 15 45 8 16 15 37 15 46 0 9 5 20 10
23 6 3 10 16 10 29 0 12 4 26 9 31 10 12 81 207 81 223 0 7 4 12 9 12 4 0 11
15 14 33 3 18 21 68 41 111 20 42 36 84 36 91 0 8 5 17 10 20 6 3 10 15 10 26
0 10 5 19 10 19 6 0 10 5 10 11 0 6 17 34 37 62 l37 50 -40 -7 c-21 -4 -55
-13 -74 -21 -19 -7 -69 -26 -110 -41 -87 -32 -156 -68 -246 -130 -35 -24 -67
-44 -70 -44 -5 0 -70 -46 -90 -65 -6 -5 -35 -30 -65 -55 -55 -45 -215 -204
-256 -253 -12 -14 -35 -46 -50 -69 -15 -24 -30 -45 -33 -48 -10 -10 -31 -45
-36 -62 -4 -10 -10 -18 -15 -18 -5 0 -9 -6 -9 -14 0 -8 -4 -16 -8 -18 -11 -4
-62 -108 -62 -125 0 -7 -4 -13 -10 -13 -5 0 -10 -5 -10 -11 0 -5 -12 -36 -26
-67 -32 -70 -38 -84 -59 -147 -9 -27 -21 -58 -26 -67 -5 -10 -9 -27 -9 -38 0
-11 -4 -20 -8 -20 -4 0 -14 -21 -21 -47 -7 -27 -19 -70 -27 -98 -24 -84 -55
-188 -64 -220 -5 -16 -12 -49 -16 -73 -4 -23 -11 -45 -15 -48 -5 -3 -9 -14 -9
-25 0 -10 -4 -27 -9 -37 -5 -9 -16 -42 -24 -72 -26 -87 -88 -283 -99 -310 -6
-14 -19 -51 -29 -83 -10 -32 -25 -72 -32 -90 -8 -18 -20 -52 -27 -77 -11 -42
-27 -83 -53 -137 -18 -38 -100 -117 -142 -137 -48 -22 -158 -39 -273 -40 -87
-1 -95 -5 -108 -53 -12 -44 0 -53 73 -53 38 0 122 -6 188 -14 272 -33 814 -57
995 -45 101 6 250 20 375 34 52 6 210 34 255 45 19 4 60 14 90 20 30 7 69 16
85 21 17 5 71 20 120 35 126 36 172 52 233 80 29 13 55 24 58 24 24 0 341 174
364 201 3 3 14 12 26 20 78 53 280 253 386 383 10 12 22 26 28 33 5 7 10 17
10 23 0 5 5 10 10 10 6 0 10 7 10 15 0 8 3 15 8 15 4 0 16 17 27 37 11 21 22
40 26 43 3 3 23 39 45 80 21 41 42 77 46 78 5 2 8 10 8 17 0 18 32 89 43 93 4
2 7 12 7 22 0 10 5 22 10 25 6 3 10 14 10 23 0 9 7 30 15 46 8 15 15 39 15 52
0 13 5 24 10 24 6 0 10 10 10 23 0 13 4 27 9 33 9 10 28 92 43 189 16 99 21
374 8 435 -24 118 -43 187 -61 223 -10 22 -19 43 -19 48 0 23 -106 226 -130
249 -3 3 -18 23 -34 45 -36 49 -174 188 -236 237 -67 53 -203 128 -305 167
-33 13 -69 27 -80 31 -11 5 -54 16 -95 25 -41 9 -88 21 -104 26 -16 5 -46 9
-67 9 -21 0 -40 4 -43 9 -3 4 -38 11 -78 14 -40 3 -104 11 -143 18 -92 16
-653 16 -795 0 -58 -7 -157 -16 -220 -21 -158 -12 -287 -27 -373 -44 -39 -8
-133 -24 -207 -37 -74 -12 -155 -25 -180 -30 -25 -4 -72 -12 -105 -18 -33 -5
-97 -19 -143 -31 -46 -11 -108 -20 -139 -20 -53 0 -58 2 -107 50 -70 67 -109
96 -186 134 -84 43 -180 77 -250 89 -70 11 -244 20 -251 12z m2538 -3101 c-3
-3 -12 -4 -19 -1 -8 3 -5 6 6 6 11 1 17 -2 13 -5z"/>
<path d="M2080 4527 c-5 -4 -174 -22 -315 -33 -87 -6 -275 -24 -385 -35 -52
-5 -147 -14 -210 -19 -316 -26 -415 -62 -462 -168 -11 -26 -25 -55 -29 -64 -5
-10 -9 -67 -9 -127 l0 -109 31 15 c18 9 42 13 62 9 l32 -6 0 88 c1 108 18 149
78 183 54 31 115 46 208 53 41 3 124 10 184 16 61 5 214 16 340 24 127 8 244
17 260 20 17 3 99 11 183 17 l153 13 -3 60 -3 61 -55 3 c-31 2 -58 1 -60 -1z"/>
<path d="M11018 4193 c17 -2 47 -2 65 0 17 2 3 4 -33 4 -36 0 -50 -2 -32 -4z"/>
<path d="M11140 4196 c0 -2 16 -6 35 -8 19 -2 35 0 35 4 0 4 -16 8 -35 8 -19
0 -35 -2 -35 -4z"/>
<path d="M13138 4013 c34 -2 90 -2 125 0 34 2 6 3 -63 3 -69 0 -97 -1 -62 -3z"/>
<path d="M13533 4013 c9 -2 23 -2 30 0 6 3 -1 5 -18 5 -16 0 -22 -2 -12 -5z"/>
<path d="M13593 4013 c9 -2 23 -2 30 0 6 3 -1 5 -18 5 -16 0 -22 -2 -12 -5z"/>
<path d="M7213 3833 c9 -2 23 -2 30 0 6 3 -1 5 -18 5 -16 0 -22 -2 -12 -5z"/>
<path d="M7288 3833 c7 -3 16 -2 19 1 4 3 -2 6 -13 5 -11 0 -14 -3 -6 -6z"/>
<path d="M7333 3833 c9 -2 25 -2 35 0 9 3 1 5 -18 5 -19 0 -27 -2 -17 -5z"/>
<path d="M8550 3833 c0 -5 37 -7 82 -5 143 4 157 9 36 10 -65 1 -118 -1 -118
-5z"/>
<path d="M9385 3834 c48 -8 215 -9 215 -2 0 4 -53 7 -117 7 -65 -1 -109 -3
-98 -5z"/>
<path d="M10203 3833 c15 -2 39 -2 55 0 15 2 2 4 -28 4 -30 0 -43 -2 -27 -4z"/>
<path d="M10291 3836 c10 -9 109 -14 109 -6 0 6 -25 10 -57 10 -31 0 -54 -2
-52 -4z"/>
<path d="M11758 3833 c7 -3 16 -2 19 1 4 3 -2 6 -13 5 -11 0 -14 -3 -6 -6z"/>
<path d="M15530 3831 c0 -4 11 -6 25 -3 14 2 25 6 25 8 0 2 -11 4 -25 4 -14 0
-25 -4 -25 -9z"/>
<path d="M15623 3833 c9 -2 25 -2 35 0 9 3 1 5 -18 5 -19 0 -27 -2 -17 -5z"/>
<path d="M15688 3833 c7 -3 16 -2 19 1 4 3 -2 6 -13 5 -11 0 -14 -3 -6 -6z"/>
<path d="M15728 3833 c6 -2 18 -2 25 0 6 3 1 5 -13 5 -14 0 -19 -2 -12 -5z"/>
<path d="M14913 3630 c0 -25 2 -35 4 -22 2 12 2 32 0 45 -2 12 -4 2 -4 -23z"/>
<path d="M12125 3610 c3 -5 8 -10 11 -10 2 0 4 5 4 10 0 6 -5 10 -11 10 -5 0
-7 -4 -4 -10z"/>
<path d="M2385 3532 c-6 -5 -35 -19 -65 -31 -55 -23 -93 -40 -222 -100 -37
-17 -96 -42 -130 -57 -35 -14 -117 -52 -183 -84 -66 -32 -149 -70 -185 -85
-36 -15 -105 -46 -155 -70 -130 -62 -160 -74 -215 -81 -73 -10 -128 25 -170
109 -18 34 -39 70 -47 79 -15 16 -17 16 -41 -2 -13 -11 -35 -20 -49 -20 l-23
0 26 -52 c43 -86 146 -224 173 -235 52 -20 115 -31 135 -23 12 5 48 16 81 26
33 9 67 21 75 25 8 4 31 14 50 22 19 8 70 31 113 51 43 20 80 36 82 36 2 0 83
38 180 85 97 47 179 85 181 85 2 0 27 11 56 24 68 31 120 54 243 109 167 74
195 90 195 108 0 10 -10 25 -22 34 -13 8 -23 23 -23 33 0 19 -43 29 -60 14z"/>
<path d="M7203 3425 c0 -22 2 -30 4 -17 2 12 2 30 0 40 -3 9 -5 -1 -4 -23z"/>
<path d="M981 3344 c0 -11 3 -14 6 -6 3 7 2 16 -1 19 -3 4 -6 -2 -5 -13z"/>
<path d="M12210 3298 c0 -12 3 -18 7 -14 11 10 12 36 2 36 -5 0 -9 -10 -9 -22z"/>
<path d="M7688 3243 c7 -3 16 -2 19 1 4 3 -2 6 -13 5 -11 0 -14 -3 -6 -6z"/>
<path d="M17028 3053 c-5 -17 -15 -23 -49 -26 l-44 -4 40 -1 c48 -2 68 9 63
34 -3 17 -4 17 -10 -3z"/>
<path d="M8193 3023 c59 -2 155 -2 215 0 59 1 10 3 -108 3 -118 0 -167 -2
-107 -3z"/>
<path d="M8968 3023 c7 -3 16 -2 19 1 4 3 -2 6 -13 5 -11 0 -14 -3 -6 -6z"/>
<path d="M9743 3023 c20 -2 54 -2 75 0 20 2 3 4 -38 4 -41 0 -58 -2 -37 -4z"/>
<path d="M10008 3023 c29 -2 74 -2 100 0 26 2 2 3 -53 3 -55 0 -76 -1 -47 -3z"/>
<path d="M10313 3023 c15 -2 39 -2 55 0 15 2 2 4 -28 4 -30 0 -43 -2 -27 -4z"/>
<path d="M11348 3023 c18 -2 45 -2 60 0 15 2 0 4 -33 4 -33 0 -45 -2 -27 -4z"/>
<path d="M11483 3023 c15 -2 37 -2 50 0 12 2 0 4 -28 4 -27 0 -38 -2 -22 -4z"/>
<path d="M11673 3023 c32 -2 81 -2 110 0 29 2 3 3 -58 3 -60 0 -84 -1 -52 -3z"/>
<path d="M11938 3023 c7 -3 16 -2 19 1 4 3 -2 6 -13 5 -11 0 -14 -3 -6 -6z"/>
<path d="M11978 3023 c7 -3 16 -2 19 1 4 3 -2 6 -13 5 -11 0 -14 -3 -6 -6z"/>
<path d="M12108 3023 c12 -2 30 -2 40 0 9 3 -1 5 -23 4 -22 0 -30 -2 -17 -4z"/>
<path d="M13758 3023 c12 -2 30 -2 40 0 9 3 -1 5 -23 4 -22 0 -30 -2 -17 -4z"/>
<path d="M13863 3023 c9 -2 23 -2 30 0 6 3 -1 5 -18 5 -16 0 -22 -2 -12 -5z"/>
<path d="M14128 3023 c18 -2 45 -2 60 0 15 2 0 4 -33 4 -33 0 -45 -2 -27 -4z"/>
<path d="M15093 3023 c54 -2 139 -2 190 0 51 1 7 3 -98 3 -104 0 -146 -2 -92
-3z"/>
<path d="M15588 3023 c28 -2 76 -2 105 0 28 2 5 3 -53 3 -58 0 -81 -1 -52 -3z"/>
<path d="M16878 3023 c6 -2 18 -2 25 0 6 3 1 5 -13 5 -14 0 -19 -2 -12 -5z"/>
<path d="M14418 2883 c6 -2 18 -2 25 0 6 3 1 5 -13 5 -14 0 -19 -2 -12 -5z"/>
<path d="M13890 2448 c-19 -5 -53 -14 -75 -20 -47 -12 -61 -18 -140 -54 -68
-32 -211 -167 -236 -221 -7 -18 -17 -33 -21 -33 -5 0 -8 -9 -8 -19 0 -11 -4
-23 -10 -26 -5 -3 -10 -17 -10 -30 0 -13 -4 -26 -9 -29 -5 -3 -12 -32 -15 -63
-4 -32 -12 -82 -17 -112 -9 -42 -7 -76 6 -160 10 -58 21 -110 26 -116 5 -5 9
-19 9 -32 0 -13 5 -23 10 -23 6 0 10 -11 10 -24 0 -13 3 -26 8 -28 4 -1 16
-19 27 -39 62 -113 206 -210 365 -247 107 -25 309 -23 450 4 53 10 58 17 48
76 -5 29 -12 72 -15 95 -5 46 -27 62 -60 45 -10 -5 -55 -15 -101 -22 -67 -10
-96 -10 -157 1 -41 7 -75 17 -75 21 0 4 -8 8 -18 8 -30 0 -77 27 -133 78 -57
51 -119 164 -119 217 0 16 -5 47 -11 68 -7 27 -7 54 1 95 16 81 32 135 44 151
6 8 10 17 10 20 -4 15 16 49 47 81 35 37 111 90 129 90 5 0 10 4 10 9 0 9 81
26 160 35 38 4 112 -4 245 -26 13 -2 20 3 23 17 2 11 7 29 12 40 9 21 18 57
27 111 4 27 1 32 -19 37 -130 31 -175 37 -273 36 -60 -1 -126 -5 -145 -11z"/>
<path d="M7260 2439 c-69 -5 -130 -11 -135 -13 -8 -3 -10 -197 -7 -627 3 -575
4 -625 20 -631 9 -4 118 -7 242 -7 192 -1 241 2 325 20 156 32 254 80 345 169
66 65 110 139 140 235 7 22 16 48 21 57 13 25 11 355 -1 363 -5 3 -10 17 -10
30 0 13 -6 36 -14 52 -8 15 -22 44 -30 63 -40 95 -190 216 -310 251 -139 41
-357 55 -586 38z m437 -216 c32 -10 60 -21 61 -25 2 -5 8 -8 13 -8 22 0 94
-73 125 -126 41 -69 54 -130 54 -251 0 -64 -4 -114 -10 -118 -5 -3 -10 -19
-10 -34 0 -44 -50 -132 -104 -184 -87 -83 -188 -117 -350 -117 l-93 0 -7 78
c-8 90 -7 585 1 714 5 84 6 87 32 92 54 9 232 -3 288 -21z"/>
<path d="M10720 2340 c-8 -4 -44 -13 -80 -20 -36 -6 -81 -15 -100 -20 l-35 -9
3 -82 c5 -125 3 -129 -68 -129 l-60 0 0 -90 0 -90 53 0 c29 0 58 -5 65 -12 9
-9 12 -80 12 -257 0 -274 9 -331 62 -395 56 -69 145 -92 299 -80 l89 7 0 101
0 101 -44 -3 c-63 -5 -111 13 -135 51 -18 29 -20 53 -22 248 -1 119 1 221 5
228 5 7 43 11 107 11 l99 0 0 90 0 89 -107 3 -108 3 0 129 c0 129 -4 144 -35
126z"/>
<path d="M8740 2090 c-8 -5 -24 -10 -34 -10 -41 0 -127 -54 -183 -114 -73 -78
-92 -116 -118 -229 -19 -87 -19 -151 1 -235 39 -167 131 -271 294 -333 47 -18
294 -19 312 -1 6 6 19 12 28 12 53 0 187 102 222 169 7 14 15 28 18 31 15 14
54 163 58 221 4 78 -18 197 -52 271 -39 89 -181 208 -246 208 -11 0 -22 5 -25
10 -8 13 -255 13 -275 0z m234 -204 c33 -25 48 -50 85 -139 15 -38 14 -203 -2
-247 -35 -95 -80 -144 -150 -159 -96 -22 -194 40 -229 146 -20 56 -25 230 -9
261 6 9 20 38 32 65 39 82 85 110 175 105 49 -3 69 -10 98 -32z"/>
<path d="M9850 2081 c-162 -47 -251 -130 -320 -296 -7 -16 -15 -78 -18 -138
-6 -130 12 -209 67 -295 81 -124 168 -175 341 -200 78 -11 230 2 279 25 28 13
32 19 28 41 -3 15 -9 55 -13 90 -4 35 -11 62 -18 62 -6 0 -40 -5 -76 -10 -138
-20 -254 26 -310 122 -27 48 -30 61 -30 145 0 80 3 98 27 145 32 62 41 70 111
103 43 21 68 25 138 25 47 0 95 -5 106 -11 28 -15 35 -4 47 76 5 39 13 79 16
90 5 18 -1 22 -40 33 -65 17 -267 13 -335 -7z"/>
<path d="M11460 2091 c-8 -5 -31 -12 -50 -16 -19 -4 -37 -10 -40 -14 -3 -3
-22 -15 -42 -25 -45 -23 -128 -102 -148 -142 -8 -16 -18 -31 -21 -34 -9 -8
-30 -90 -42 -165 -11 -74 4 -250 23 -269 6 -6 10 -16 10 -24 0 -7 6 -19 13
-27 6 -7 32 -38 56 -69 24 -30 54 -62 67 -70 51 -34 96 -56 113 -56 10 0 21
-3 25 -7 4 -5 42 -13 84 -18 106 -14 237 6 319 48 44 23 141 115 160 151 9 17
19 33 23 36 18 14 44 161 44 250 -2 157 -34 242 -129 335 -74 72 -90 85 -108
85 -7 0 -17 3 -21 7 -27 27 -297 46 -336 24z m196 -181 c38 -15 79 -60 106
-117 20 -42 22 -64 22 -168 0 -134 -11 -170 -72 -237 -67 -72 -180 -72 -256 0
-72 67 -101 267 -56 382 28 70 60 113 102 133 38 19 114 22 154 7z"/>
<path d="M12667 2079 c-47 -25 -77 -50 -77 -65 0 -6 -7 -18 -17 -25 -9 -8 -22
-28 -29 -46 -9 -20 -20 -30 -31 -29 -22 3 -31 34 -32 109 l-1 57 -107 0 -108
0 3 -447 c1 -247 4 -453 6 -459 3 -6 49 -10 127 -10 l124 1 3 270 c1 187 6
278 14 295 21 43 60 90 74 90 8 0 14 3 14 8 0 10 97 32 143 32 l37 0 0 120 0
120 -52 0 c-33 -1 -67 -9 -91 -21z"/>
<path d="M14717 2094 c-3 -4 -26 -10 -51 -15 -25 -5 -66 -18 -92 -29 -35 -17
-44 -25 -39 -38 7 -17 21 -64 32 -109 7 -28 5 -28 84 -2 44 15 92 21 159 22
84 2 100 -1 137 -22 42 -24 63 -59 63 -106 0 -21 -5 -22 -107 -29 -166 -11
-272 -49 -351 -126 -49 -49 -64 -76 -82 -147 -23 -90 13 -209 83 -272 65 -58
82 -64 197 -65 115 0 123 3 208 66 68 51 96 49 100 -7 2 -22 9 -43 15 -47 17
-11 189 -10 206 1 10 6 11 13 2 29 -7 14 -11 122 -11 326 0 192 -4 307 -10
311 -5 3 -10 16 -10 28 0 32 -52 117 -96 157 -74 66 -123 80 -294 80 -75 0
-139 -3 -143 -6z m457 -142 c2 -4 -4 -8 -14 -8 -10 0 -16 4 -14 8 3 4 9 8 14
8 5 0 11 -4 14 -8z m-153 -404 c2 -96 -1 -110 -27 -144 -68 -91 -232 -98 -267
-12 -20 50 -12 114 21 151 16 19 79 50 117 60 11 2 50 5 88 6 l67 1 1 -62z"/>
<path d="M15907 2067 c-33 -22 -55 -46 -69 -77 -23 -50 -64 -88 -79 -73 -10
10 -17 61 -18 126 l-1 37 -105 0 -105 0 0 -460 0 -460 114 0 c63 0 121 3 130
6 14 5 16 38 16 263 0 149 5 272 11 294 14 51 44 84 98 108 42 18 142 36 158
28 12 -6 21 214 10 229 -6 7 -31 12 -61 12 -40 -1 -61 -8 -99 -33z m2 -26
c-13 -11 -26 -17 -29 -14 -6 6 30 33 43 33 5 0 -1 -9 -14 -19z m151 -57 c0
-30 -4 -43 -11 -38 -6 3 -9 15 -6 25 3 11 1 17 -4 13 -5 -3 -6 3 -2 12 5 14 3
16 -12 11 -15 -6 -16 -5 -5 8 24 29 40 18 40 -31z"/>
<path d="M16525 2090 c-3 -5 -13 -10 -22 -10 -27 0 -99 -41 -139 -79 -58 -55
-76 -79 -118 -161 l-38 -75 -2 -135 c-1 -123 12 -210 34 -230 3 -3 13 -21 23
-40 79 -156 286 -234 541 -204 122 14 207 36 206 53 -1 3 -9 40 -18 81 -17 69
-20 75 -43 73 -13 0 -64 -5 -114 -10 -123 -11 -230 -1 -280 26 -65 36 -94 73
-97 123 l-3 43 296 3 297 2 6 23 c15 58 0 200 -31 287 -36 97 -108 176 -200
216 -47 21 -69 24 -173 24 -68 0 -121 -4 -125 -10z m187 -169 c67 -29 107 -91
108 -168 l0 -33 -184 0 c-102 0 -187 3 -189 8 -6 9 15 87 33 124 16 33 50 57
105 74 56 18 77 17 127 -5z"/>
</g>
</svg>
